<?xml version="1.0" encoding="UTF-8"?>
<svg version="1.1" xmlns="http://www.w3.org/2000/svg" width="78" height="77">
<path d="M0 0 C25.74 0 51.48 0 78 0 C78 25.41 78 50.82 78 77 C52.26 77 26.52 77 0 77 C0 51.59 0 26.18 0 0 Z " fill="#0B1638" transform="translate(0,0)"/>
<path d="M0 0 C25.74 0 51.48 0 78 0 C78 25.41 78 50.82 78 77 C52.26 77 26.52 77 0 77 C0 51.59 0 26.18 0 0 Z M11.6875 17.5625 C4.56284754 26.35215277 4.01027345 35.01624695 5 46 C6.916046 54.73763145 12.42065988 62.90049016 19.875 67.875 C29.97628513 73.47820807 39.35460311 74.43361812 50.5625 71.5625 C60.55425039 68.18049423 66.77001009 61.32508166 71.94140625 52.359375 C75.47614058 44.48122173 75.36361839 33.73590764 72.5 25.6875 C67.82433789 15.71275416 60.23000282 9.88387753 50.21875 5.890625 C46.48071116 4.85631328 42.97338347 4.65564252 39.125 4.6875 C38.06055664 4.69595947 38.06055664 4.69595947 36.97460938 4.70458984 C26.29004943 4.95278224 18.67216708 9.64654398 11.6875 17.5625 Z " fill="#FAFAFB" transform="translate(0,0)"/>
<path d="M0 0 C3.33600367 2.05838525 4.8262176 3.7393264 7 7 C7 7.99 7 8.98 7 10 C7.9075 10.226875 8.815 10.45375 9.75 10.6875 C13.64687977 12.26123991 15.02427129 13.28563002 17 17 C17.52013386 21.07693158 17.11155347 24.5210423 14.60546875 27.85546875 C13.42813729 29.01685441 12.21486526 30.14265948 10.97265625 31.234375 C8.2404961 33.67979359 6.00213542 36.47473287 3.67578125 39.30078125 C1.90490218 41.09642786 0.30404558 42.01111769 -2 43 C-3.32 41.35 -4.64 39.7 -6 38 C-5.54036865 37.57178955 -5.0807373 37.1435791 -4.60717773 36.70239258 C-2.53504922 34.75492315 -0.48641051 32.78437001 1.5625 30.8125 C2.28630859 30.13896484 3.01011719 29.46542969 3.75585938 28.77148438 C4.43583984 28.11083984 5.11582031 27.45019531 5.81640625 26.76953125 C6.45006104 26.16729736 7.08371582 25.56506348 7.73657227 24.94458008 C9.29217631 22.99954582 9.29217631 22.99954582 8.69897461 20.2644043 C8.46831299 19.51715088 8.23765137 18.76989746 8 18 C2.27003831 18.16433925 -0.62475092 22.17726075 -4.3125 26.0625 C-5.28026367 27.05733398 -5.28026367 27.05733398 -6.26757812 28.07226562 C-7.85447018 29.70617671 -9.43126328 31.34868147 -11 33 C-12.65 31.68 -14.3 30.36 -16 29 C-14.58226538 25.45566346 -13.32387762 24.66193881 -10 23 C-9.70351563 22.39027344 -9.40703125 21.78054687 -9.1015625 21.15234375 C-7.84963538 18.70620246 -6.41799324 17.38269768 -4.375 15.5625 C-1.48927449 12.86087729 -1.48927449 12.86087729 -0.5625 9.0625 C-0.706875 8.381875 -0.85125 7.70125 -1 7 C-8.05324462 8.15155014 -10.64104917 11.60129943 -15 17 C-16.93165856 19.10887494 -18.90244593 21.04878691 -21 23 C-21.66 23 -22.32 23 -23 23 C-24.625 21 -24.625 21 -26 19 C-23.84728151 14.25052799 -20.52419536 10.96667355 -16.9375 7.25 C-16.30650391 6.55261719 -15.67550781 5.85523438 -15.02539062 5.13671875 C-10.37915309 0.34513977 -6.70430739 -1.46491104 0 0 Z " fill="#F0F0F2" transform="translate(43,18)"/>
</svg>
